# xmcd
#
# Track frame offsets:
#	150
#	14733
#	26237
#	38245
#	49045
#	59490
#	75144
#	91206
#	107392
#	116969
#	136108
#	149295
#	160646
#	175799
#	188711
#	200342
#	216297
#	232480
#
# Disc length: 3261 seconds
#
# Revision: 0
# Processed by: cddbd v1.5.2PL0 Copyright (c) Steve Scherf et al.
# Submitted via: audiograbber 1.83.01
#
DISCID=f70cbb12
DTITLE=Various Artist - Complete Country  disc 1
DYEAR=2006
DGENRE=Country
TTITLE0=Glen Campbell - Rhinestone Cowboy
TTITLE1=Crystal Gayle - Don't it make your Brown eyes Blue
TTITLE2=Kenny Rogers and the First Edition - Reuben James
TTITLE3=Faron Young - Hello Walls
TTITLE4=Felin Husky - Wings of a Dove
TTITLE5=Juice Newton - Lay back in the arms of someone
TTITLE6=Joe Smith - Games People Play
TTITLE7=Billie Jo Spears - Blanket on the Ground
TTITLE8=George Jones - The Race is on
TTITLE9=Bobbie Gentry - Ode to Billy Joe
TTITLE10=Merle Haggard and the Strangers - Okie from Muskogee
TTITLE11=Sonny James - Young Love
TTITLE12=Jessie Colter - I'm not Lisa
TTITLE13=Willie Nelson - Crazy
TTITLE14=Glen Campbell and Bobbie Gentry - All I have to do is Dream
TTITLE15=Kenny Rogers - The Gambler
TTITLE16=Nitty Gritty Dirt Band - Mr. Bojangles
TTITLE17=Frank Ifield - The Wayward Wind
EXTD=
EXTT0=
EXTT1=
EXTT2=
EXTT3=
EXTT4=
EXTT5=
EXTT6=
EXTT7=
EXTT8=
EXTT9=
EXTT10=
EXTT11=
EXTT12=
EXTT13=
EXTT14=
EXTT15=
EXTT16=
EXTT17=
PLAYORDER=
